<svg width="960" height="260" viewBox="0 0 960 260" fill="none" xmlns="http://www.w3.org/2000/svg">
  <defs>
    <linearGradient id="v1-gold" x1="34" y1="18" x2="118" y2="126" gradientUnits="userSpaceOnUse">
      <stop stop-color="#C8A86E"/>
      <stop offset="1" stop-color="#8E6C40"/>
    </linearGradient>
  </defs>
  <rect width="960" height="260" fill="none"/>
  <g transform="translate(34 32)">
    <path d="M56 0L86 14V40H74V22H38V40H26V14L56 0Z" fill="url(#v1-gold)"/>
    <path d="M18 58C18 35.9086 35.9086 18 58 18C80.0914 18 98 35.9086 98 58V108C98 130.091 80.0914 148 58 148C35.9086 148 18 130.091 18 108V58Z" stroke="#1D2936" stroke-width="8"/>
    <path d="M44 42H84V56H58V80H79V94H58V124H44V42Z" fill="#1D2936"/>
  </g>
  <g fill="#1D2936">
    <path d="M182 179V67H255V82H200V117H250V132H200V179H182Z"/>
    <path d="M270 179V67H289V179H270Z"/>
    <path d="M311 179V67H330L388 148H389V67H407V179H389L330 98H329V179H311Z"/>
    <path d="M430 179V67H503V82H448V114H499V129H448V164H503V179H430Z"/>
    <path d="M528 179V82H492V67H583V82H547V179H528Z"/>
    <path d="M596 179V67H615V179H596Z"/>
    <path d="M638 179V67H678C689 67 698 69.8 705 75.4C712.2 81 715.8 88.8 715.8 98.8C715.8 106.2 713.8 112.5 709.8 117.7C705.8 122.9 700.1 126.5 692.8 128.5L720.8 179H699.5L673.4 130.8H656.9V179H638ZM656.9 116.4H676.4C683.2 116.4 688.4 114.9 692 111.9C695.7 108.8 697.5 104.4 697.5 98.8C697.5 93.2 695.7 88.9 692 85.9C688.4 82.8 683.2 81.3 676.4 81.3H656.9V116.4Z"/>
    <path d="M736 179V67H809V82H754V114H805V129H754V164H809V179H736Z"/>
    <path d="M855.2 181.8C848.1 181.8 841.4 181 835.1 179.4C828.9 177.7 823.4 175.3 818.8 172.1V153.7C824 157 829.6 159.6 835.6 161.5C841.6 163.3 847.5 164.2 853.2 164.2C860.1 164.2 865.5 163 869.2 160.6C872.9 158.1 874.8 154.5 874.8 149.8C874.8 146.8 873.9 144.2 872.1 142.1C870.3 139.9 867.7 138.1 864.2 136.7C860.8 135.2 856.6 133.8 851.7 132.4L844.7 130.4C834 127.5 826 123.3 820.7 117.8C815.4 112.3 812.8 104.9 812.8 95.7C812.8 89.1 814.5 83.3 818 78.2C821.6 73.1 826.7 69.2 833.3 66.4C840 63.6 848 62.2 857.4 62.2C864 62.2 870.1 62.9 875.7 64.3C881.4 65.6 886.4 67.7 890.8 70.4V87.9C886.3 85.3 881.4 83.3 876.1 81.9C870.9 80.4 865.8 79.7 860.7 79.7C854.7 79.7 850 80.9 846.5 83.2C843 85.4 841.2 88.7 841.2 92.9C841.2 95.6 842 98 843.5 100C845.1 101.9 847.4 103.6 850.4 104.9C853.5 106.1 857.4 107.3 862 108.6L869.1 110.6C879.2 113.1 886.9 117.2 892.1 122.8C897.4 128.2 900 135.8 900 145.5C900 152.2 898.2 158.2 894.5 163.5C890.9 168.8 885.5 173 878.4 176C871.4 179 862.3 180.6 851.2 180.6L855.2 181.8Z"/>
  </g>
  <g fill="#55615E">
    <path d="M356 225V205H364V225H356Z"/>
    <path d="M379 225V205H412V211H399V225H392V211H379Z"/>
    <path d="M427 225V205H434V225H427Z"/>
    <path d="M451 225V205H459L482 219H483V205H490V225H482L459 211H458V225H451Z"/>
  </g>
</svg>
