<svg width="960" height="260" viewBox="0 0 960 260" fill="none" xmlns="http://www.w3.org/2000/svg">
  <defs>
    <linearGradient id="v2-steel" x1="18" y1="18" x2="128" y2="144" gradientUnits="userSpaceOnUse">
      <stop stop-color="#BB9A63"/>
      <stop offset="1" stop-color="#1D2936"/>
    </linearGradient>
  </defs>
  <g transform="translate(34 26)">
    <path d="M56 0L102 20V52L90 46V28H22V46L10 52V20L56 0Z" fill="#C4A56E"/>
    <path d="M10 60L56 40L102 60V164L56 188L10 164V60Z" fill="url(#v2-steel)"/>
    <path d="M42 66H82V80H56V103H77V117H56V154H42V66Z" fill="#F4EFE7"/>
    <path d="M56 40L102 60L56 80L10 60L56 40Z" fill="#3B4753"/>
  </g>
  <g fill="#1D2936">
    <path d="M182 181V63H254V78H200V114H250V129H200V181H182Z"/>
    <path d="M270 181V63H344V78H288V113H340V128H288V166H344V181H270Z"/>
    <path d="M362 181V63H382V166H433V181H362Z"/>
    <path d="M449 181V63H523V78H467V113H519V128H467V166H523V181H449Z"/>
    <path d="M540 181V63H560V181H540Z"/>
    <path d="M582 181V63H603L661 149H662V63H680V181H661L603 96H601V181H582Z"/>
    <path d="M706 181V78H670V63H761V78H725V181H706Z"/>
    <path d="M805.2 183.8C798.1 183.8 791.4 183 785.1 181.4C778.9 179.7 773.4 177.3 768.8 174.1V155.7C774 159 779.6 161.6 785.6 163.5C791.6 165.3 797.5 166.2 803.2 166.2C810.1 166.2 815.5 165 819.2 162.6C822.9 160.1 824.8 156.5 824.8 151.8C824.8 148.8 823.9 146.2 822.1 144.1C820.3 141.9 817.7 140.1 814.2 138.7C810.8 137.2 806.6 135.8 801.7 134.4L794.7 132.4C784 129.5 776 125.3 770.7 119.8C765.4 114.3 762.8 106.9 762.8 97.7C762.8 91.1 764.5 85.3 768 80.2C771.6 75.1 776.7 71.2 783.3 68.4C790 65.6 798 64.2 807.4 64.2C814 64.2 820.1 64.9 825.7 66.3C831.4 67.6 836.4 69.7 840.8 72.4V89.9C836.3 87.3 831.4 85.3 826.1 83.9C820.9 82.4 815.8 81.7 810.7 81.7C804.7 81.7 800 82.9 796.5 85.2C793 87.4 791.2 90.7 791.2 94.9C791.2 97.6 792 100 793.5 102C795.1 103.9 797.4 105.6 800.4 106.9C803.5 108.1 807.4 109.3 812 110.6L819.1 112.6C829.2 115.1 836.9 119.2 842.1 124.8C847.4 130.2 850 137.8 850 147.5C850 154.2 848.2 160.2 844.5 165.5C840.9 170.8 835.5 175 828.4 178C821.4 181 812.3 182.6 801.2 182.6L805.2 183.8Z"/>
  </g>
  <g fill="#55615E">
    <path d="M328 226V204H379V210H357V213H376V219H357V226H328Z"/>
    <path d="M394 226V204H401V226H394Z"/>
    <path d="M418 226V204H425L445 218H446V204H453V226H446L425 212H424V226H418Z"/>
    <path d="M469 226V204H476V226H469Z"/>
    <path d="M493 226V204H544V210H522V226H515V210H493Z"/>
  </g>
</svg>
