<svg width="960" height="260" viewBox="0 0 960 260" fill="none" xmlns="http://www.w3.org/2000/svg">
  <defs>
    <linearGradient id="v3-mark" x1="30" y1="10" x2="160" y2="170" gradientUnits="userSpaceOnUse">
      <stop stop-color="#D0B078"/>
      <stop offset="1" stop-color="#1D2936"/>
    </linearGradient>
  </defs>
  <g transform="translate(36 26)">
    <path d="M19 24L67 0L115 24V50H99V34L67 18L35 34V50H19V24Z" fill="#B99760"/>
    <path d="M19 58H115V165L67 188L19 165V58Z" fill="url(#v3-mark)"/>
    <path d="M45 78H89V91H61V109H85V122H61V151H45V78Z" fill="#F4EFE7"/>
    <path d="M31 58L67 40L103 58" stroke="#F4EFE7" stroke-width="6"/>
  </g>
  <g fill="#1D2936">
    <path d="M179 181V63H253V78H197V113H249V128H197V166H253V181H179Z"/>
    <path d="M271 181V63H291V181H271Z"/>
    <path d="M313 181V63H370C380.7 63 389.1 65.8 395.2 71.4C401.4 77 404.5 84.9 404.5 95.2C404.5 105.1 401.3 112.9 394.9 118.5C388.5 124 379.9 126.8 369.2 126.8H331V181H313ZM331 111.8H367.5C374.2 111.8 379.4 110.4 383.1 107.5C386.8 104.5 388.6 100.4 388.6 95.2C388.6 89.9 386.8 85.8 383.1 82.9C379.4 79.9 374.2 78.4 367.5 78.4H331V111.8Z"/>
    <path d="M421 181V63H494V78H439V113H490V128H439V166H494V181H421Z"/>
    <path d="M513 181V63H570C580.7 63 589.1 65.8 595.3 71.4C601.5 77 604.6 84.9 604.6 95.2C604.6 101.9 603.1 107.8 600.2 112.7C597.2 117.5 592.8 121.2 586.9 123.7L607.7 181H586.4L567.8 127.5H531V181H513ZM531 112.8H567.6C574.4 112.8 579.5 111.4 583.1 108.6C586.9 105.7 588.7 101.2 588.7 95.2C588.7 89.2 586.9 84.7 583.1 81.8C579.5 79 574.4 77.6 567.6 77.6H531V112.8Z"/>
    <path d="M624 181V63H697V78H642V113H693V128H642V166H697V181H624Z"/>
    <path d="M741.2 183.8C734.1 183.8 727.4 183 721.1 181.4C714.9 179.7 709.4 177.3 704.8 174.1V155.7C710 159 715.6 161.6 721.6 163.5C727.6 165.3 733.5 166.2 739.2 166.2C746.1 166.2 751.5 165 755.2 162.6C758.9 160.1 760.8 156.5 760.8 151.8C760.8 148.8 759.9 146.2 758.1 144.1C756.3 141.9 753.7 140.1 750.2 138.7C746.8 137.2 742.6 135.8 737.7 134.4L730.7 132.4C720 129.5 712 125.3 706.7 119.8C701.4 114.3 698.8 106.9 698.8 97.7C698.8 91.1 700.5 85.3 704 80.2C707.6 75.1 712.7 71.2 719.3 68.4C726 65.6 734 64.2 743.4 64.2C750 64.2 756.1 64.9 761.7 66.3C767.4 67.6 772.4 69.7 776.8 72.4V89.9C772.3 87.3 767.4 85.3 762.1 83.9C756.9 82.4 751.8 81.7 746.7 81.7C740.7 81.7 736 82.9 732.5 85.2C729 87.4 727.2 90.7 727.2 94.9C727.2 97.6 728 100 729.5 102C731.1 103.9 733.4 105.6 736.4 106.9C739.5 108.1 743.4 109.3 748 110.6L755.1 112.6C765.2 115.1 772.9 119.2 778.1 124.8C783.4 130.2 786 137.8 786 147.5C786 154.2 784.2 160.2 780.5 165.5C776.9 170.8 771.5 175 764.4 178C757.4 181 748.3 182.6 737.2 182.6L741.2 183.8Z"/>
    <path d="M829.2 183.8C822.1 183.8 815.4 183 809.1 181.4C802.9 179.7 797.4 177.3 792.8 174.1V155.7C798 159 803.6 161.6 809.6 163.5C815.6 165.3 821.5 166.2 827.2 166.2C834.1 166.2 839.5 165 843.2 162.6C846.9 160.1 848.8 156.5 848.8 151.8C848.8 148.8 847.9 146.2 846.1 144.1C844.3 141.9 841.7 140.1 838.2 138.7C834.8 137.2 830.6 135.8 825.7 134.4L818.7 132.4C808 129.5 800 125.3 794.7 119.8C789.4 114.3 786.8 106.9 786.8 97.7C786.8 91.1 788.5 85.3 792 80.2C795.6 75.1 800.7 71.2 807.3 68.4C814 65.6 822 64.2 831.4 64.2C838 64.2 844.1 64.9 849.7 66.3C855.4 67.6 860.4 69.7 864.8 72.4V89.9C860.3 87.3 855.4 85.3 850.1 83.9C844.9 82.4 839.8 81.7 834.7 81.7C828.7 81.7 824 82.9 820.5 85.2C817 87.4 815.2 90.7 815.2 94.9C815.2 97.6 816 100 817.5 102C819.1 103.9 821.4 105.6 824.4 106.9C827.5 108.1 831.4 109.3 836 110.6L843.1 112.6C853.2 115.1 860.9 119.2 866.1 124.8C871.4 130.2 874 137.8 874 147.5C874 154.2 872.2 160.2 868.5 165.5C864.9 170.8 859.5 175 852.4 178C845.4 181 836.3 182.6 825.2 182.6L829.2 183.8Z"/>
  </g>
  <g fill="#55615E">
    <path d="M363 226V204H376L391 219L406 204H419V226H412V211L391 227L370 211V226H363Z"/>
    <path d="M441 226V204H448V226H441Z"/>
    <path d="M466 226V204H517V210H495V213H514V219H495V226H466Z"/>
    <path d="M534 226V204H541V226H534Z"/>
    <path d="M560 226V204H611V210H589V213H608V219H589V226H560Z"/>
  </g>
</svg>
