<svg width="880" height="280" viewBox="0 0 880 280" fill="none" xmlns="http://www.w3.org/2000/svg">
  <defs>
    <linearGradient id="fortressMetal" x1="70" y1="28" x2="198" y2="220" gradientUnits="userSpaceOnUse">
      <stop stop-color="#A98A59"/>
      <stop offset="1" stop-color="#1D2936"/>
    </linearGradient>
    <linearGradient id="fortressCrown" x1="48" y1="10" x2="220" y2="92" gradientUnits="userSpaceOnUse">
      <stop stop-color="#C7AE7B"/>
      <stop offset="1" stop-color="#54616A"/>
    </linearGradient>
  </defs>
  <g>
    <path d="M127.622 26L60 54.971V112.653L127.622 82.286V26Z" fill="url(#fortressCrown)"/>
    <path d="M130.889 26L198 54.971V112.653L130.889 82.286V26Z" fill="#66746E"/>
    <path d="M93.5 49.38L73.5 60.39V80.38L93.5 69.49V49.38Z" fill="#F4EFE7"/>
    <path d="M166.5 49.38L186.5 60.39V80.38L166.5 69.49V49.38Z" fill="#F4EFE7"/>
    <path d="M127 0L94 14.244V58.392L127 44.05V0Z" fill="#A98A59"/>
    <path d="M131 0L164 14.244V58.392L131 44.05V0Z" fill="#5D6A65"/>
    <path d="M127.59 72L74 95.986V220.641L127.59 244V72Z" fill="url(#fortressMetal)"/>
    <path d="M131.41 72L185 95.986V137.418L157.382 131.315V151.482L183.691 153.862V176.556L157.382 178.987V215.977L131.41 227.608V72Z" fill="#62716B"/>
    <path d="M111.844 115.394L143.818 101.054L143.817 123.106L111.844 137.609V115.394Z" fill="#F4EFE7"/>
    <path d="M111.844 144.709L138.424 132.53L138.424 152.06L111.844 164.176V144.709Z" fill="#F4EFE7"/>
    <path d="M111.844 172.941L138.424 170.386L138.424 189.821L111.844 192.245V172.941Z" fill="#F4EFE7"/>
  </g>
  <g fill="#1D2936">
    <path d="M281.633 208V111.745H344.463V130.674H305.803V152.983H340.95V171.843H305.803V208H281.633Z"/>
    <path d="M397.896 209.756C389.418 209.756 382.087 208.048 375.904 204.632C369.769 201.216 365.035 196.363 361.702 190.071C358.369 183.778 356.702 176.363 356.702 167.825V151.991C356.702 143.454 358.369 136.039 361.702 129.746C365.035 123.454 369.769 118.6 375.904 115.185C382.087 111.769 389.418 110.061 397.896 110.061C406.422 110.061 413.752 111.769 419.887 115.185C426.07 118.6 430.826 123.454 434.159 129.746C437.492 136.039 439.159 143.454 439.159 151.991V167.825C439.159 176.363 437.492 183.778 434.159 190.071C430.826 196.363 426.07 201.216 419.887 204.632C413.752 208.048 406.422 209.756 397.896 209.756ZM397.896 189.51C404.467 189.51 409.687 187.541 413.555 183.602C417.423 179.614 419.358 174.233 419.358 167.457V152.36C419.358 145.584 417.423 140.227 413.555 136.287C409.687 132.299 404.467 130.305 397.896 130.305C391.417 130.305 386.22 132.299 382.305 136.287C378.437 140.227 376.503 145.584 376.503 152.36V167.457C376.503 174.233 378.437 179.614 382.305 183.602C386.22 187.541 391.417 189.51 397.896 189.51Z"/>
    <path d="M456.795 208V111.745H501.465C511.886 111.745 520.001 114.477 525.81 119.941C531.619 125.355 534.524 132.793 534.524 142.254C534.524 148.449 533.139 153.866 530.37 158.504C527.601 163.143 523.524 166.656 518.138 169.046L537.384 208H511.785L495.174 172.508H480.965V208H456.795ZM480.965 154.728H498.509C502.887 154.728 506.245 153.652 508.583 151.5C510.97 149.3 512.163 146.155 512.163 142.065C512.163 137.975 510.97 134.878 508.583 132.775C506.245 130.624 502.887 129.548 498.509 129.548H480.965V154.728Z"/>
    <path d="M552.077 208V111.745H614.907V130.674H576.247V152.983H611.395V171.843H576.247V208H552.077Z"/>
    <path d="M630.146 208V111.745H674.816C685.237 111.745 693.351 114.477 699.16 119.941C704.97 125.355 707.874 132.793 707.874 142.254C707.874 148.449 706.49 153.866 703.72 158.504C700.951 163.143 696.874 166.656 691.489 169.046L710.734 208H685.136L668.525 172.508H654.316V208H630.146ZM654.316 154.728H671.86C676.237 154.728 679.596 153.652 681.934 151.5C684.321 149.3 685.514 146.155 685.514 142.065C685.514 137.975 684.321 134.878 681.934 132.775C679.596 130.624 676.237 129.548 671.86 129.548H654.316V154.728Z"/>
    <path d="M730.08 208V111.745H792.909V130.674H754.25V150.351H790.013V169.141H754.25V189.071H792.909V208H730.08Z"/>
    <path d="M836.042 209.756C829.749 209.756 823.808 209.012 818.221 207.524C812.633 205.987 807.686 203.787 803.378 200.925V179.932C808.307 182.847 813.488 185.117 818.919 186.741C824.349 188.366 829.322 189.178 833.836 189.178C839.171 189.178 843.117 188.366 845.674 186.741C848.23 185.117 849.509 182.725 849.509 179.565C849.509 177.519 848.89 175.848 847.652 174.551C846.413 173.205 844.633 172.04 842.311 171.056C840.018 170.072 837.307 169.141 834.179 168.263L829.912 167.088C820.109 164.4 812.77 160.583 807.896 155.635C803.021 150.689 800.583 144.094 800.583 135.85C800.583 130.025 801.974 124.969 804.757 120.684C807.572 116.4 811.637 113.101 816.954 110.789C822.271 108.446 828.698 107.273 836.236 107.273C841.804 107.273 847.003 107.902 851.834 109.159C856.664 110.384 860.953 112.213 864.699 114.646V134.448C861.052 132.071 857.036 130.271 852.65 129.048C848.294 127.825 843.935 127.213 839.574 127.213C835.059 127.213 831.496 128.001 828.885 129.577C826.274 131.152 824.968 133.495 824.968 136.604C824.968 138.547 825.522 140.151 826.631 141.414C827.77 142.677 829.433 143.766 831.62 144.68C833.808 145.595 836.519 146.457 839.752 147.268L844.019 148.317C850.775 149.943 856.563 152.19 861.382 155.058C866.202 157.875 869.903 161.574 872.486 166.156C875.097 170.737 876.403 176.271 876.403 182.758C876.403 188.684 874.905 193.861 871.909 198.288C868.939 202.664 864.652 206.06 859.049 208.476C853.47 210.875 846.468 212.074 838.042 212.074Z"/>
  </g>
  <g fill="#55615E">
    <path d="M374.791 250H322.96V243.725H345.578V216.443H352.173V243.725H374.791V250Z"/>
    <path d="M414.46 250L408.279 237.786H385.942L379.761 250H372.608L390.787 215.883H403.435L421.614 250H414.46ZM389.062 231.605H405.159L397.161 215.806H397.042L389.062 231.605Z"/>
    <path d="M458.388 250H450.654V235.357L432.558 216.443H440.887L454.587 231.146L468.287 216.443H476.615L458.388 235.357V250Z"/>
    <path d="M533.928 251.062C529.82 251.062 526.298 250.375 523.36 249C520.435 247.611 518.197 245.604 516.646 242.98C515.108 240.356 514.339 237.197 514.339 233.503C514.339 230.852 514.883 228.528 515.972 226.53C517.061 224.518 518.592 222.813 520.566 221.414C522.54 220.015 524.864 218.915 527.537 218.115C526.244 216.509 525.311 214.954 524.739 213.45C524.166 211.947 523.88 210.369 523.88 208.718C523.88 206.69 524.436 204.877 525.549 203.279C526.675 201.68 528.235 200.423 530.228 199.508C532.234 198.594 534.566 198.137 537.226 198.137C539.769 198.137 541.998 198.57 543.914 199.436C545.84 200.302 547.338 201.515 548.409 203.076C549.483 204.637 550.019 206.453 550.019 208.523C550.019 210.318 549.532 211.928 548.557 213.353C547.595 214.765 546.218 216.016 544.427 217.107C542.65 218.183 540.541 219.133 538.101 219.954L551.183 233.722C551.717 232.106 552.117 230.358 552.383 228.479C552.662 226.599 552.801 224.551 552.801 222.335V221.682H559.033V222.335C559.033 225.381 558.764 228.165 558.226 230.685C557.689 233.204 556.901 235.489 555.865 237.54L567.975 250H559.141L552.039 242.674C549.871 245.317 547.221 247.313 544.088 248.663C540.97 250 537.583 250.686 533.928 250.721V251.062ZM534.296 245.069C537.398 245.069 540.188 244.49 542.666 243.332C545.144 242.159 547.218 240.478 548.887 238.289L532.824 221.304C530.88 221.917 529.221 222.644 527.846 223.485C526.47 224.313 525.405 225.311 524.65 226.478C523.909 227.645 523.538 229.045 523.538 230.677C523.538 232.889 523.999 234.813 524.923 236.451C525.86 238.09 527.2 239.354 528.942 240.245C530.698 241.137 532.797 241.582 535.242 241.582L534.296 245.069ZM534.122 216.494C536.091 215.814 537.779 215.074 539.188 214.272C540.611 213.47 541.698 212.588 542.448 211.626C543.199 210.663 543.574 209.565 543.574 208.33C543.574 206.726 543.018 205.424 541.906 204.424C540.808 203.413 539.269 202.907 537.288 202.907C535.167 202.907 533.437 203.48 532.1 204.626C530.776 205.758 530.114 207.231 530.114 209.043C530.114 210.179 530.394 211.31 530.952 212.436C531.524 213.548 532.58 214.901 534.122 216.494Z"/>
    <path d="M657.189 250H605.357V243.725H627.976V216.443H634.57V243.725H657.189V250Z"/>
    <path d="M695.539 250L689.358 237.786H667.021L660.84 250H653.687L671.866 215.883H684.514L702.693 250H695.539ZM670.141 231.605H686.238L678.239 215.806H678.121L670.141 231.605Z"/>
    <path d="M723.879 250V216.443H741.312C744.841 216.443 747.819 216.964 750.247 218.007C752.676 219.051 754.523 220.543 755.79 222.484C757.07 224.411 757.71 226.718 757.71 229.405C757.71 232.092 757.07 234.405 755.79 236.346C754.523 238.273 752.676 239.758 750.247 240.801C747.819 241.844 744.841 242.366 741.312 242.366H730.473V250H723.879ZM730.473 236.091H740.911C744.393 236.091 747.041 235.507 748.856 234.339C750.671 233.158 751.578 231.513 751.578 229.405C751.578 227.282 750.671 225.637 748.856 224.47C747.041 223.288 744.393 222.698 740.911 222.698H730.473V236.091Z"/>
    <path d="M793.674 250.783C790.242 250.783 787.003 250.427 783.956 249.716C780.908 248.991 778.257 247.929 776.002 246.529V239.642C778.556 241.209 781.387 242.416 784.494 243.264C787.616 244.112 790.818 244.536 794.102 244.536C797.278 244.536 799.769 244.031 801.576 243.019C803.398 241.994 804.309 240.556 804.309 238.707C804.309 237.46 803.953 236.418 803.243 235.58C802.545 234.743 801.501 234.04 800.11 233.471C798.734 232.889 797.031 232.345 795.002 231.841L789.88 230.634C785.29 229.554 781.865 227.897 779.606 225.664C777.362 223.432 776.24 220.477 776.24 216.798C776.24 214.045 776.986 211.664 778.478 209.656C779.985 207.648 782.107 206.104 784.847 205.024C787.602 203.944 790.853 203.404 794.602 203.404C797.588 203.404 800.405 203.724 803.053 204.365C805.716 205.005 808.056 205.952 810.075 207.205V213.955C807.832 212.635 805.431 211.65 802.871 210.999C800.327 210.335 797.794 210.003 795.273 210.003C792.324 210.003 789.969 210.503 788.206 211.504C786.443 212.503 785.562 213.878 785.562 215.627C785.562 216.845 785.871 217.867 786.489 218.695C787.122 219.521 788.081 220.222 789.368 220.797C790.67 221.362 792.307 221.883 794.279 222.362L799.471 223.588C802.621 224.312 805.313 225.285 807.547 226.507C809.795 227.729 811.511 229.27 812.696 231.13C813.894 232.98 814.494 235.23 814.494 237.881C814.494 240.7 813.698 243.148 812.106 245.227C810.53 247.289 808.304 248.894 805.429 250.042C802.569 251.19 799.151 251.763 795.177 251.763L793.674 250.783Z"/>
    <path d="M855.157 250.783C851.725 250.783 848.486 250.427 845.438 249.716C842.391 248.991 839.739 247.929 837.485 246.529V239.642C840.039 241.209 842.87 242.416 845.977 243.264C849.099 244.112 852.301 244.536 855.585 244.536C858.761 244.536 861.252 244.031 863.059 243.019C864.88 241.994 865.791 240.556 865.791 238.707C865.791 237.46 865.436 236.418 864.725 235.58C864.027 234.743 862.984 234.04 861.593 233.471C860.217 232.889 858.514 232.345 856.485 231.841L851.363 230.634C846.773 229.554 843.348 227.897 841.089 225.664C838.845 223.432 837.723 220.477 837.723 216.798C837.723 214.045 838.469 211.664 839.961 209.656C841.467 207.648 843.59 206.104 846.329 205.024C849.085 203.944 852.335 203.404 856.085 203.404C859.071 203.404 861.888 203.724 864.536 204.365C867.199 205.005 869.539 205.952 871.558 207.205V213.955C869.314 212.635 866.914 211.65 864.354 210.999C861.809 210.335 859.277 210.003 856.756 210.003C853.807 210.003 851.452 210.503 849.689 211.504C847.925 212.503 847.044 213.878 847.044 215.627C847.044 216.845 847.354 217.867 847.972 218.695C848.604 219.521 849.564 220.222 850.851 220.797C852.153 221.362 853.79 221.883 855.761 222.362L860.954 223.588C864.104 224.312 866.796 225.285 869.03 226.507C871.278 227.729 872.994 229.27 874.179 231.13C875.377 232.98 875.976 235.23 875.976 237.881C875.976 240.7 875.181 243.148 873.589 245.227C872.012 247.289 869.787 248.894 866.912 250.042C864.052 251.19 860.633 251.763 856.66 251.763L855.157 250.783Z"/>
    <path d="M733.141 250H726.546V216.443H733.141V250Z"/>
  </g>
</svg>
